<?xml version="1.0" encoding="UTF-8"?>
<svg id="Layer_2" data-name="Layer 2" xmlns="http://www.w3.org/2000/svg" viewBox="0 0 763.63 355.03">
  <defs>
    <style>
      .cls-1 {
        fill: #fff;
      }
    </style>
  </defs>
  <g id="Layer_1-2" data-name="Layer 1">
    <g>
      <g>
        <g>
          <polygon class="cls-1" points="355.01 107.85 269.94 85.06 247.15 .02 247.15 0 332.2 22.79 355.01 107.85"/>
          <polygon class="cls-1" points="239.77 1.96 262.56 87.04 200.28 149.3 177.49 64.24 239.77 1.96"/>
          <polygon class="cls-1" points="353.02 115.24 290.75 177.51 205.71 154.7 267.96 92.45 353.02 115.24"/>
        </g>
        <g>
          <polygon class="cls-1" points="107.83 0 107.83 .02 85.04 85.06 0 107.83 22.79 22.79 107.83 0"/>
          <polygon class="cls-1" points="149.28 154.7 64.24 177.51 1.98 115.24 87.02 92.45 149.28 154.7"/>
          <polygon class="cls-1" points="154.7 149.3 92.45 87.04 115.24 1.98 177.49 64.24 154.7 149.3"/>
        </g>
        <g>
          <g>
            <polygon class="cls-1" points="149.3 200.3 87.04 262.56 1.98 239.79 64.24 177.51 149.3 200.3"/>
            <polygon class="cls-1" points="177.49 290.77 115.24 353.05 92.45 267.98 154.7 205.71 177.49 290.77"/>
          </g>
          <polygon class="cls-1" points="107.83 355.01 107.83 355.03 22.79 332.24 0 247.2 0 247.18 85.04 269.96 107.83 355.01"/>
        </g>
        <g>
          <g>
            <polygon class="cls-1" points="353.02 239.79 267.94 262.56 205.68 200.3 290.75 177.51 353.02 239.79"/>
            <polygon class="cls-1" points="262.53 267.96 239.77 353.05 177.49 290.77 200.28 205.71 262.53 267.96"/>
          </g>
          <polygon class="cls-1" points="355.01 247.18 332.2 332.24 247.15 355.03 247.15 355.01 269.94 269.96 355.01 247.18"/>
        </g>
      </g>
      <g>
        <path class="cls-1" d="M457.17,99.32h23.54l3.4,9.38h13.47l-20.83-56.63h-15.45l-20.75,56.63h13.22l3.4-9.38ZM465.67,75.61c1.78-4.69,3.07-8.17,3.16-8.25h.24c.08.08,1.37,3.64,3.16,8.33l4.04,11.24h-14.64l4.04-11.33Z"/>
        <rect class="cls-1" x="522.87" y="52.07" width="13.59" height="56.63"/>
        <path class="cls-1" d="M469.43,174.52h-.24l-14.23-25.32h-14.4v56.63h13.59v-13.83c0-13.43-.16-20.06-.16-20.14h.24c.09.08,2.75,5.18,5.59,10.19l5.5,9.79h7.6l5.5-9.95c2.75-4.85,5.5-9.95,5.59-10.03h.16c0,.08-.16,6.71-.16,20.14v13.83h13.59v-56.63h-13.83l-14.32,25.32Z"/>
        <rect class="cls-1" x="522.87" y="149.2" width="13.59" height="56.63"/>
        <path class="cls-1" d="M588.09,194.1c-8.73,0-14.97-6.55-14.97-16.58s5.83-16.67,15.05-16.67c6.07,0,10.68,2.67,13.59,7.2l13.43-3.64c-3.81-9.14-13.35-16.34-26.37-16.34-16.91,0-29.36,12.05-29.36,29.29s12.46,29.61,29.36,29.61c12.3,0,22.73-6.88,26.94-17.88l-13.35-3.56c-2.27,4.69-6.88,8.57-14.32,8.57Z"/>
        <path class="cls-1" d="M652.2,187.14h6.07l10.6,18.69h16.1l-12.94-21.35c6.88-2.59,10.68-8.33,10.68-16.1,0-11.73-8.33-19.17-22.57-19.17h-21.52v56.63h13.59v-18.69ZM652.2,161.5h8.73c5.26,0,7.85,2.83,7.85,7.52s-2.75,7.28-7.77,7.28h-8.82v-14.8Z"/>
        <path class="cls-1" d="M733.78,148.07c-17.32,0-29.85,12.14-29.85,29.45s12.53,29.45,29.85,29.45,29.85-12.13,29.85-29.45-12.54-29.45-29.85-29.45ZM733.78,194.1c-9.39,0-16.18-6.47-16.18-16.58s6.8-16.67,16.18-16.67,16.18,6.47,16.18,16.67-6.8,16.58-16.18,16.58Z"/>
        <path class="cls-1" d="M469.43,271.65h-.24l-14.23-25.32h-14.4v56.63h13.59v-13.83c0-13.43-.16-20.06-.16-20.14h.24c.09.08,2.75,5.18,5.59,10.19l5.5,9.79h7.6l5.5-9.95c2.75-4.85,5.5-9.95,5.59-10.03h.16c0,.08-.16,6.71-.16,20.14v13.83h13.59v-56.63h-13.83l-14.32,25.32Z"/>
        <rect class="cls-1" x="522.87" y="246.33" width="13.59" height="56.63"/>
        <path class="cls-1" d="M599.74,265.99c0,6.15.08,13.43.08,13.51h-.24l-24.1-33.17h-13.75v56.63h13.59v-19.42c0-7.36-.16-14.32-.16-14.4h.24l24.11,33.81h13.83v-56.63h-13.59v19.66Z"/>
        <path class="cls-1" d="M655.12,246.33h-16.51v56.63h16.59c16.74,0,29.77-10.92,29.77-28.07s-12.94-28.56-29.85-28.56ZM654.39,290.34h-2.19v-31.39h2.19c8.41,0,16.91,4.85,16.91,15.94s-8.5,15.45-16.91,15.45Z"/>
      </g>
    </g>
  </g>
</svg>